<?xml version="1.0" encoding="utf-8"?>
<!-- Generator: Adobe Illustrator 14.0.0, SVG Export Plug-In . SVG Version: 6.00 Build 43363)  -->
<!DOCTYPE svg PUBLIC "-//W3C//DTD SVG 1.1//EN" "http://www.w3.org/Graphics/SVG/1.1/DTD/svg11.dtd">
<svg version="1.1" id="Layer_2" xmlns="http://www.w3.org/2000/svg" xmlns:xlink="http://www.w3.org/1999/xlink" x="0px" y="0px"
	 width="828px" height="828px" viewBox="0 0 828 828" enable-background="new 0 0 828 828" xml:space="preserve">
<g>
	<path fill="#84A25B" d="M754,487.325c-2.186-2.186-16.821-4.876-25.966-20.476c2.173-1.157,4.215-2.4,6.133-3.718
		c4.338-2.993,8.027-6.37,10.989-10.225c5.053-6.588,3.805-16.024-2.783-21.077c-6.594-5.053-16.028-3.805-21.083,2.783
		c-0.341,0.451-0.855,1.025-1.548,1.668c-0.275,0.251-0.57,0.516-0.897,0.784c-1.695-5.39-3.783-10.821-6.394-16.134
		c-8.551-17.414-22.702-33.598-46.852-43.144c-3.704-1.471-7.645-2.779-11.838-3.914c-4.273-0.998-8.405-1.718-12.397-2.178
		c-25.829-2.998-45.973,4.621-61.747,15.957c-5.043,3.622-9.64,7.622-13.831,11.777c-0.061-0.122-0.114-0.245-0.169-0.369
		c-0.757-1.686-1.126-3.062-1.271-3.959c-1.021-6.297-5.813-11.045-11.696-12.297c3.554-30.883-10.57-60.471-37.371-72.568
		c-34.218-15.445-76.135,3.459-93.631,42.219c-17.501,38.761-3.946,82.701,30.267,98.146c15.256,6.881,32.035,6.939,47.506,1.458
		c2.373,4.971,5.621,9.9,9.739,14.768c4.932,5.8,11.114,11.499,18.677,16.916l-15.624,39.945c-0.009,0.023-0.019,0.042-0.021,0.064
		c-2.06,5.354,1.312,7.677,5.896,9.491c0.035,0.019,0.078,0.032,0.118,0.046c5.28,1.981,11.03,3.941,17.155,5.809l-4.176,10.667
		c-0.003,0.022-0.012,0.04-0.021,0.063c-1.313,3.863,1.877,8.032,8.394,10.453c0.177,0.067,0.359,0.132,0.541,0.195
		c19.793,7.158,45.508,13.852,72.828,17.014c5.73,0.582,9.463-0.201,10.621-9.5h0.004l4.998-43.667
		c3.107,0.669,6.232,1.274,9.372,1.808l2.758,32.629c0,0.008,0,0.019,0,0.026l0.432,5.107c0.726,3.432,2.542,5.642,6.648,5.222
		c0.008,0,0.019,0,0.026,0c3.463-0.311,6.908-0.705,10.325-1.189l0.063,0.756c0.024,0.265,0.046,0.524,0.069,0.779
		c0.541,5.531,1.855,9.21,10.461,8.726c24.587-2.615,48.143-9.683,67.598-23.359c0.014-0.011,0.022-0.014,0.036-0.024
		c1.563-1.102,3.103-2.246,4.61-3.434c4.702-4.353,4.639-8.579,1.039-15.323c-0.019-0.041-0.04-0.083-0.063-0.123l-13.387-24.91
		C737.543,504.99,746.096,497.208,754,487.325z"/>
	<path fill="#92B265" d="M754,487.325c-2.186-2.186-16.821-4.876-25.966-20.476c2.173-1.157,4.215-2.4,6.133-3.718
		c4.338-2.993,8.027-6.37,10.989-10.225c5.053-6.588,3.805-16.024-2.783-21.077c-6.594-5.053-16.028-3.805-21.083,2.783
		c-0.341,0.451-0.855,1.025-1.548,1.668c-0.275,0.251-0.57,0.516-0.897,0.784c-1.695-5.39-3.783-10.821-6.394-16.134
		c-8.551-17.414-22.702-33.598-46.852-43.144c-3.704-1.471-7.645-2.779-11.838-3.914c-4.273-0.998-8.405-1.718-12.397-2.178
		c-25.829-2.998-45.973,4.621-61.747,15.957c-5.043,3.622-9.64,7.622-13.831,11.777c-0.061-0.122-0.114-0.245-0.169-0.369
		c-0.757-1.686-1.126-3.062-1.271-3.959c-1.021-6.297-5.813-11.045-11.696-12.297c3.554-30.883-10.57-60.471-37.371-72.568
		c-34.218-15.445-76.135,3.459-93.631,42.219c-17.501,38.761-3.946,82.701,30.267,98.146c15.256,6.881,32.035,6.939,47.506,1.458
		c2.373,4.971,5.621,9.9,9.739,14.768c4.932,5.8,11.114,11.499,18.677,16.916c3.612,2.599,7.545,5.127,11.801,7.569
		c3.737,2.142,7.723,4.223,11.974,6.22l-16.251,41.566l-4.176,10.667c-0.003,0.022-0.012,0.04-0.021,0.063
		c-1.313,3.863,1.877,8.032,8.394,10.453c0.177,0.067,0.359,0.132,0.541,0.195c19.793,7.158,45.508,13.852,72.828,17.014
		c5.73,0.582,9.463-0.201,10.621-9.5h0.004l4.998-43.667c3.107,0.669,6.232,1.274,9.372,1.808
		c5.583,0.947,11.204,1.664,16.832,2.086l3.357,39.709l0.063,0.756c0.024,0.265,0.046,0.524,0.069,0.779
		c0.541,5.531,1.855,9.21,10.461,8.726c24.587-2.615,48.143-9.683,67.598-23.359c0.014-0.011,0.022-0.014,0.036-0.024
		c1.563-1.102,3.103-2.246,4.61-3.434c4.702-4.353,4.639-8.579,1.039-15.323c-0.019-0.041-0.04-0.083-0.063-0.123l-13.387-24.91
		C737.543,504.99,746.096,497.208,754,487.325z"/>
	<g>
		<g id="XMLID_3_">
			<path fill="#8EAD62" d="M625.87,547.69l-2.32,20.3c-1.16,9.3-4.89,10.08-10.63,9.5c-27.32-3.16-53.03-9.86-72.82-17.01
				c-0.18-0.07-0.369-0.131-0.54-0.2c-6.52-2.42-9.71-6.59-8.399-10.45c0.01-0.021,0.02-0.04,0.02-0.061l4.181-10.67l1.84-4.71
				C537.22,549.01,570,561,589.5,561S622.25,558.88,625.87,547.69z"/>
			<path fill="#8EAD62" d="M741.99,536.05c3.59,6.74,3.66,10.97-1.04,15.32c-1.51,1.189-3.05,2.33-4.61,3.43
				c-0.02,0.01-0.03,0.021-0.04,0.03c-19.46,13.67-43.01,20.74-67.6,23.36c-8.601,0.479-9.92-3.2-10.46-8.73
				c-0.021-0.25-0.04-0.51-0.07-0.78l-0.06-0.75l-1.551-18.35c7.44,18.92,63.78,18.77,85.36-13.66
				C741.95,535.96,741.97,536,741.99,536.05z"/>
			<path fill="#8EAD62" d="M728.03,466.85c1.649,2.811,3.47,5.2,5.37,7.24C655.81,503.67,581,475,552.16,431.45
				c6.87,7.17,15.74,14.109,26.85,20.49c13.16,7.55,29.46,14.3,49.36,19.55l0.33,0.08c18.14,4.35,34.25,6.22,48.41,6.22
				c16.72-0.01,30.72-2.6,42.05-6.91C722.33,469.67,725.28,468.32,728.03,466.85z"/>
			<path fill="#97B46C" d="M547.44,344.03h-0.011c-35.55-41.31-76.92-29.53-111.04-14.11c20.82-22.88,52.2-31.73,78.891-19.68
				C530.24,316.99,541.25,329.19,547.44,344.03z"/>
			<path fill="#8EAD62" d="M418.03,412.25c11.439,20.95,35.81,41.87,81.39,39.81c-15.47,5.48-32.25,5.421-47.51-1.46
				C435.44,443.17,423.76,429.13,418.03,412.25z"/>
		</g>
	</g>
	<path fill="#008964" d="M742.373,431.83c-6.594-5.053-16.028-3.805-21.083,2.783c-0.341,0.451-0.855,1.025-1.548,1.668
		c-0.275,0.251-0.57,0.516-0.897,0.784c-1.695-5.39-3.783-10.821-6.394-16.134c-28.963,8.725-54.762-13.583-46.852-43.144
		c-3.704-1.471-7.645-2.779-11.838-3.914c-4.273-0.998-8.405-1.718-12.397-2.178v0.004c-6.934,29.871-40.295,37.403-61.747,15.952
		c-5.043,3.622-9.64,7.622-13.831,11.777c-0.061-0.122-0.114-0.245-0.169-0.369c-0.757-1.686-1.126-3.062-1.271-3.959
		c-1.021-6.297-5.813-11.045-11.696-12.297c-1.777-0.388-3.649-0.447-5.55-0.142c-8.202,1.331-13.764,9.054-12.438,17.25
		c0.557,3.413,1.559,6.784,2.948,10.138c2.441,5.864,6.078,11.678,10.927,17.401c7.279,8.574,17.313,16.926,30.476,24.485
		c13.163,7.554,29.46,14.301,49.357,19.555l0.334,0.081c18.139,4.348,34.25,6.217,48.405,6.217
		c16.727-0.006,30.719-2.598,42.052-6.913c3.165-1.208,6.122-2.556,8.874-4.027c2.173-1.157,4.215-2.4,6.133-3.718
		c4.338-2.993,8.027-6.37,10.989-10.225C750.209,446.319,748.961,436.883,742.373,431.83z M677.108,447.718
		c-11.464,0-25.2-1.517-41.23-5.349c-13.386-3.54-24.571-7.756-33.788-12.233c-1.863-0.907-3.649-1.823-5.354-2.744
		c10.598-14.392,34.014-21.291,47.855-17.085c14.14,2.793,31.479,19.784,34.153,37.403
		C678.206,447.714,677.659,447.718,677.108,447.718z"/>
	<path fill="#00926B" d="M728.034,466.85c-2.752,1.472-5.709,2.819-8.874,4.027c-11.333,4.315-25.325,6.907-42.052,6.913
		c-14.155,0-30.267-1.869-48.405-6.217l-0.334-0.081c-19.897-5.254-36.194-12.001-49.357-19.555
		c-13.163-7.56-23.196-15.911-30.476-24.485c-4.849-5.723-8.485-11.537-10.927-17.401c-1.39-3.354-2.392-6.726-2.948-10.138
		c-1.325-8.196,4.236-15.919,12.438-17.25c1.9-0.305,3.772-0.246,5.55,0.142c5.883,1.252,10.676,6,11.696,12.297
		c0.146,0.897,0.515,2.273,1.271,3.959c0.055,0.124,0.108,0.247,0.169,0.369c0.747,1.613,1.826,3.486,3.294,5.527
		c3.167,4.402,8.154,9.569,15.404,14.8c3.53,2.552,7.6,5.116,12.251,7.635c1.705,0.921,3.491,1.837,5.354,2.744
		c9.217,4.478,20.402,8.693,33.788,12.233c16.03,3.832,29.767,5.349,41.23,5.349c0.551,0,1.098-0.004,1.636-0.009
		c9.469-0.123,17.332-1.285,23.625-2.976c6.656-1.782,11.554-4.165,14.743-6.37c0.647-0.441,1.227-0.88,1.732-1.298
		c0.327-0.269,0.622-0.533,0.897-0.784c0.692-0.643,1.207-1.217,1.548-1.668c5.055-6.588,14.489-7.836,21.083-2.783
		c6.588,5.053,7.836,14.489,2.783,21.077c-2.962,3.854-6.651,7.231-10.989,10.225C732.249,464.449,730.207,465.692,728.034,466.85z"
		/>
	<path fill="#00543A" d="M432.617,379.958c0.153,1.806-1.187,3.393-2.992,3.546c-1.805,0.154-3.393-1.185-3.546-2.991
		c-0.153-1.805,1.187-3.393,2.991-3.546C430.875,376.813,432.463,378.152,432.617,379.958z M489.706,403.366
		c-1.806,0.154-3.144,1.742-2.989,3.546c0.152,1.805,1.74,3.145,3.545,2.991c1.805-0.153,3.145-1.741,2.99-3.548
		C493.099,404.551,491.512,403.212,489.706,403.366z"/>
	<g>
		<g>
			<g id="XMLID_2_">
				<path fill="#97B46C" d="M644.59,410.31c12.62,2.49,27.8,16.3,32.8,31.77c-1.56,0.04-3.14,0.05-4.739,0.04
					c-17.49-38.97-50.62-30.33-67.9-16.95c-1.37-0.72-2.72-1.47-4.06-2.26C612.39,411.61,632.28,406.57,644.59,410.31z"/>
				<path fill="#8AA85F" d="M672.65,442.12c0.8,1.76,1.56,3.62,2.279,5.58c-11.02-0.181-24.02-1.74-39.05-5.33
					c-13.39-3.54-24.57-7.76-33.79-12.23c-0.649-0.319-1.29-0.64-1.92-0.96c1.36-1.359,2.89-2.71,4.58-4.01
					C626.12,436.54,650.35,441.98,672.65,442.12z"/>
				<path fill="#8AA85F" d="M633.89,379.55c1.551,0.1,3.101,0.22,4.66,0.37c-6.06,13.03-18.08,20-30.88,20
					c-9.65,0-19.74-3.96-28.05-12.27c1.1-0.79,2.22-1.56,3.36-2.31C591.86,394.21,619.8,404.87,633.89,379.55z"/>
				<path fill="#8AA85F" d="M710.96,418.02c0.521,0.971,1.01,1.94,1.49,2.91c-26.771,8.07-50.851-10.39-48.08-36.58
					c1.729,0.45,3.439,0.93,5.12,1.45C668.97,404.85,682.47,423.91,710.96,418.02z"/>
				<path fill="#97B46C" d="M670.13,379.72c14.44,6.53,25.01,15.58,32.811,25.78c-7.53-9.03-19.631-15.46-33.45-19.7
					C669.54,383.76,669.75,381.72,670.13,379.72z"/>
				<path fill="#97B46C" d="M637.51,371.33c-1.06,3.09-2.27,5.82-3.62,8.22c-20.87-1.37-40.529,0.96-50.909,5.79
					C597.4,375.85,615.28,369.61,637.51,371.33z"/>
			</g>
		</g>
		<g>
			<path fill="#008460" d="M713.59,423.34c-0.37-0.81-0.75-1.609-1.14-2.41c-26.771,8.07-50.851-10.39-48.08-36.58
				c0.229-2.14,0.64-4.33,1.229-6.56c-3.699-1.47-7.64-2.78-11.84-3.92c-3.149-0.73-6.229-1.32-9.24-1.76
				c-0.46,3.05-1.079,5.78-1.84,8.24c6.25,0.72,12.5,1.78,18.551,3.21C660.34,411.22,676.12,432.24,713.59,423.34z"/>
			<path fill="#008460" d="M622.5,402c9.14-4.16,16.42-9.54,20.18-21.65c-1.38-0.17-2.76-0.31-4.13-0.43
				c-6.06,13.03-18.08,20-30.88,20c-9.65,0-19.74-3.96-28.05-12.27c-0.89,0.64-1.76,1.28-2.62,1.95
				C588.75,403.75,611.5,407,622.5,402z"/>
			<path fill="#008460" d="M721.29,434.61c-0.34,0.449-0.86,1.029-1.55,1.67c-0.271,0.25-0.57,0.52-0.9,0.79
				c-0.35-1.11-0.71-2.221-1.09-3.33c-10.62,4.74-23.49,7.54-37.37,8.22c-14.52-44.8-56.12-43.72-83.59-21.39
				c-10.37-6.49-19.86-14.51-27.86-24.15c-1.069,0.99-2.12,2-3.14,3.01c-0.06-0.12-0.12-0.25-0.17-0.37
				c-0.76-1.68-1.13-3.06-1.271-3.96c-0.96-5.91-5.229-10.44-10.609-12.02c5.779,3.21,9.26,11.04,9.26,18.1
				c0,7.07,24.1,32.72,74.55,46.52s80.83-4.82,85.7-9.7c4.73-4.74,13.11-9,15.64-8.16C732.77,427.34,725.5,429.12,721.29,434.61z
				 M677.11,447.72c-0.721,0-1.44-0.01-2.181-0.02c-11.02-0.181-24.02-1.74-39.05-5.33c-13.39-3.54-24.57-7.76-33.79-12.23
				c-0.649-0.319-1.29-0.64-1.92-0.96c-1.18-0.59-2.32-1.189-3.43-1.79c1.17-1.59,2.5-3.09,3.95-4.479
				c11.699-11.3,31.59-16.34,43.899-12.6c12.62,2.49,27.8,16.3,32.8,31.77c0.61,1.86,1.061,3.74,1.351,5.63
				C678.21,447.71,677.66,447.72,677.11,447.72z"/>
		</g>
		<g>
			<g id="XMLID_1_">
				<path fill="#19936E" d="M565.62,399.06c0.05,0.12,0.11,0.25,0.17,0.37c0.74,1.61,1.82,3.49,3.29,5.53
					c3.17,4.4,8.15,9.57,15.4,14.8c2.3,1.66,4.829,3.33,7.609,4.98c1.48,0.89,3.03,1.77,4.65,2.649c1.109,0.601,2.25,1.2,3.43,1.79
					c0.63,0.32,1.271,0.641,1.92,0.96c9.22,4.471,20.4,8.69,33.79,12.23c15.03,3.59,28.03,5.149,39.05,5.33
					c0.74,0.01,1.46,0.02,2.181,0.02c0.55,0,1.1-0.01,1.63-0.01c1.109-0.01,2.2-0.04,3.27-0.08c8.03-0.32,14.811-1.41,20.36-2.899
					c6.66-1.78,11.55-4.16,14.74-6.37c0.649-0.44,1.229-0.88,1.729-1.29c0.33-0.271,0.63-0.54,0.9-0.79
					c0.689-0.641,1.21-1.221,1.55-1.67c4.21-5.49,11.479-7.271,17.6-4.771c-2.529-0.84-10.909,3.42-15.64,8.16
					c-4.87,4.88-35.25,23.5-85.7,9.7S563,408.25,563,401.18c0-7.06-3.48-14.89-9.26-18.1c5.38,1.58,9.649,6.11,10.609,12.02
					C564.49,396,564.86,397.38,565.62,399.06z"/>
				<path fill="#008C67" d="M748.09,441.54c0.59,3.89-0.35,8-2.93,11.37c-2.97,3.85-6.66,7.229-10.99,10.22
					c-1.92,1.32-3.96,2.561-6.14,3.72c-2.75,1.471-5.7,2.82-8.87,4.03c-11.33,4.311-25.33,6.9-42.05,6.91
					c-14.16,0-30.271-1.87-48.41-6.22l-0.33-0.08c-19.9-5.25-36.2-12-49.36-19.55c-13.16-7.561-23.189-15.91-30.47-24.49
					c-4.24-5.01-7.56-10.08-9.96-15.2c34.26,35.94,87,60.24,139.42,56.75S740.68,454.08,748.09,441.54z"/>
			</g>
		</g>
	</g>
</g>
</svg>